<svg width="36" height="36" viewBox="0 0 36 36" fill="none" xmlns="http://www.w3.org/2000/svg">
<path d="M34.2 18.44C34.2 7.46 26.532 0 18 0C9.558 0 1.8 7.3 1.8 18.56C0.72 19.24 0 20.52 0 22V26C0 28.2 1.62 30 3.6 30H5.4V17.8C5.4 10.06 11.034 3.8 18 3.8C24.966 3.8 30.6 10.06 30.6 17.8V32H16.2V36H30.6C32.58 36 34.2 34.2 34.2 32V29.56C35.262 28.94 36 27.72 36 26.28V21.68C36 20.28 35.262 19.06 34.2 18.44Z" fill="#EE8520"/>
<path d="M12.5998 22C13.5939 22 14.3998 21.1046 14.3998 20C14.3998 18.8954 13.5939 18 12.5998 18C11.6057 18 10.7998 18.8954 10.7998 20C10.7998 21.1046 11.6057 22 12.5998 22Z" fill="#EE8520"/>
<path d="M23.4001 22C24.3942 22 25.2001 21.1046 25.2001 20C25.2001 18.8954 24.3942 18 23.4001 18C22.406 18 21.6001 18.8954 21.6001 20C21.6001 21.1046 22.406 22 23.4001 22Z" fill="#EE8520"/>
<path d="M28.7997 16.06C27.9357 10.36 23.4717 6 18.0897 6C12.6357 6 6.76775 11.02 7.23575 18.9C11.6817 16.88 15.0297 12.48 15.9837 7.12C18.3417 12.38 23.1837 16 28.7997 16.06Z" fill="#EE8520"/>
</svg>
