<svg width="33" height="33" viewBox="0 0 33 33" fill="none" xmlns="http://www.w3.org/2000/svg">
<path d="M16.5 0C7.392 0 0 7.392 0 16.5C0 25.608 7.392 33 16.5 33C25.608 33 33 25.608 33 16.5C33 7.392 25.608 0 16.5 0ZM16.5 4.95C19.239 4.95 21.45 7.161 21.45 9.9C21.45 12.639 19.239 14.85 16.5 14.85C13.761 14.85 11.55 12.639 11.55 9.9C11.55 7.161 13.761 4.95 16.5 4.95ZM16.5 28.38C12.375 28.38 8.7285 26.268 6.6 23.067C6.6495 19.7835 13.2 17.985 16.5 17.985C19.7835 17.985 26.3505 19.7835 26.4 23.067C24.2715 26.268 20.625 28.38 16.5 28.38Z" fill="#EE8520"/>
</svg>
